<?xml version="1.0" encoding="iso-8859-1"?>
<!-- Uploaded to: SVG Repo, www.svgrepo.com, Generator: SVG Repo Mixer Tools -->
<svg fill="#ffff" height="30px" width="30px" version="1.1" id="Layer_1" xmlns="http://www.w3.org/2000/svg" xmlns:xlink="http://www.w3.org/1999/xlink" 
	 viewBox="0 0 512 512" xml:space="preserve">
<g>
	<g>
		<path d="M489.739,211.478h-16.938c-1.488-18.07-10.177-34.657-24.231-46.079c6.941-18.439,5.511-39.356-4.606-56.878
			c-10.124-17.538-27.546-29.241-47.005-32.437c-3.194-19.46-14.899-36.882-32.44-47.007c-17.536-10.123-38.471-11.548-56.924-4.586
			C295.099,9.236,276.252,0,256,0s-39.098,9.236-51.595,24.491c-18.453-6.963-39.39-5.536-56.926,4.587
			c-17.54,10.125-29.244,27.547-32.44,47.007c-19.458,3.197-36.881,14.9-47.005,32.436c-10.116,17.522-11.547,38.439-4.605,56.878
			c-14.054,11.422-22.743,28.009-24.231,46.079H22.261c-9.22,0-16.696,7.475-16.696,16.696c0,48.235,13.787,95.057,39.871,135.404
			c23.421,36.227,55.667,65.73,93.694,85.836v12.499c0,27.618,22.469,50.087,50.087,50.087h133.565
			c27.618,0,50.087-22.469,50.087-50.087v-12.499c38.027-20.106,70.273-49.608,93.694-85.836
			c26.084-40.347,39.871-87.169,39.871-135.404C506.435,218.953,498.96,211.478,489.739,211.478z M92.217,186.588
			c4.601-2.049,8.031-6.065,9.335-10.93c1.303-4.865,0.342-10.057-2.619-14.132c-7.765-10.691-8.543-24.943-1.98-36.309
			c6.563-11.366,19.294-17.815,32.435-16.44c5.01,0.53,9.987-1.238,13.549-4.799c3.561-3.562,5.324-8.54,4.798-13.549
			c-1.38-13.141,5.073-25.87,16.44-32.433c11.366-6.561,25.619-5.783,36.309,1.98c4.073,2.96,9.266,3.921,14.132,2.618
			c4.864-1.303,8.881-4.733,10.929-9.334c5.375-12.07,17.33-19.869,30.455-19.869c13.125,0,25.08,7.799,30.456,19.869
			c2.049,4.6,6.065,8.031,10.929,9.334c4.871,1.305,10.059,0.341,14.132-2.618c10.69-7.763,24.941-8.542,36.309-1.98
			c11.366,6.563,17.82,19.292,16.44,32.433c-0.526,5.009,1.237,9.987,4.798,13.549c3.562,3.562,8.549,5.327,13.549,4.799
			c13.144-1.377,25.873,5.074,32.435,16.441c6.563,11.365,5.783,25.617-1.98,36.309c-2.96,4.075-3.921,9.268-2.619,14.132
			c1.305,4.865,4.734,8.881,9.335,10.93c8.942,3.982,17.376,12.905,19.408,24.89H72.808
			C74.841,199.492,83.274,190.571,92.217,186.588z M349,424.042c-5.817,2.768-9.522,8.635-9.522,15.076v22.795
			c0,9.206-7.49,16.696-16.696,16.696H189.217c-9.206,0-16.696-7.49-16.696-16.696v-22.795c0-6.441-3.705-12.308-9.522-15.076
			C92.72,390.6,45.634,321.471,39.612,244.87h17.325c0.041,0,0.083,0,0.125,0H455.1c0.02,0,0.041,0.003,0.061,0.003
			c0.026,0,0.05-0.003,0.076-0.003h17.151C466.366,321.471,419.28,390.6,349,424.042z"/>
	</g>
</g>
</svg>